# xmcd CD database file
#
# Track frame offsets:
#	151
#	27096
#	52736
#	63668
#	87589
#	104084
#	129859
#	150976
#	166706
#	185139
#
# Disc length: 2719 seconds
#
# Revision: 0
# Processed by: cddbd v1.4PL0 Copyright (c) Steve Scherf et al.
# Submitted via: CDex 1.40Release
#
DISCID=7a0a9d0a
DTITLE=The Mighty Flyers - Undercover
DYEAR=1900
DGENRE=Blues
TTITLE0=Undercover
TTITLE1=Come On Home
TTITLE2=F.R.E.S.N.O. #99
TTITLE3=Last Train To Aalter
TTITLE4=Bad Guy
TTITLE5=Over And Over
TTITLE6=Paradox
TTITLE7=I Live Ther Life I Love
TTITLE8=What A Life
TTITLE9=She's In Disguise
EXTD=ID3G: 0
EXTT0=
EXTT1=
EXTT2=
EXTT3=
EXTT4=
EXTT5=
EXTT6=
EXTT7=
EXTT8=
EXTT9=
PLAYORDER=
